<svg width="247" height="174" viewBox="0 0 247 174" fill="none" xmlns="http://www.w3.org/2000/svg">
    <rect x="122" y="44" width="66" height="130" fill="#D2FBE8"/>
    <rect x="11" y="10" width="69" height="164" fill="#96FCCD"/>
    <rect x="80" y="89" width="161" height="84" fill="#B5FADA"/>
    <path d="M140.042 173V153.053C140.012 152.677 140 152.301 140 151.919C140.081 147.669 141.802 143.621 144.794 140.644C147.786 137.668 151.809 136 156 136C160.191 136 164.214 137.668 167.206 140.644C170.198 143.621 171.919 147.669 172 151.919C172 152.325 172 152.731 171.952 153.131V173" stroke="#231F20" stroke-width="1.99235" stroke-miterlimit="10"/>
    <path d="M200 173V157.12C200 156.983 200 156.839 200 156.696C200 153.859 201.159 151.139 203.222 149.133C205.285 147.127 208.083 146 211 146C213.917 146 216.715 147.127 218.778 149.133C220.841 151.139 222 153.859 222 156.696C222 156.839 222 156.983 222 157.12V173" stroke="#231F20" stroke-width="1.99235" stroke-miterlimit="10"/>
    <path d="M91 173V157.12C91 156.983 91 156.839 91 156.696C91 155.292 91.2716 153.901 91.7993 152.603C92.3269 151.305 93.1004 150.126 94.0754 149.133C95.0504 148.14 96.2079 147.352 97.4818 146.814C98.7557 146.277 100.121 146 101.5 146C102.879 146 104.244 146.277 105.518 146.814C106.792 147.352 107.95 148.14 108.925 149.133C109.9 150.126 110.673 151.305 111.201 152.603C111.728 153.901 112 155.292 112 156.696C112 156.839 112 156.983 112 157.12V173" stroke="#231F20" stroke-width="1.99235" stroke-miterlimit="10"/>
    <path d="M156.5 129C162.851 129 168 123.851 168 117.5C168 111.149 162.851 106 156.5 106C150.149 106 145 111.149 145 117.5C145 123.851 150.149 129 156.5 129Z" stroke="#231F20" stroke-width="1.99235" stroke-miterlimit="10"/>
    <path d="M161 90.6005V100H152V90.6005C152 89.3804 152.474 88.2102 153.318 87.3475C154.162 86.4847 155.307 86 156.5 86C157.693 86 158.838 86.4847 159.682 87.3475C160.526 88.2102 161 89.3804 161 90.6005Z" stroke="#231F20" stroke-width="1.99235" stroke-miterlimit="10"/>
    <path d="M112 136.14C111.999 136.764 111.948 137.386 111.848 138H91.1522C90.9053 136.482 90.9592 134.926 91.3106 133.431C91.6619 131.936 92.3029 130.535 93.193 129.316C94.0831 128.098 95.2028 127.088 96.481 126.352C97.7593 125.616 99.1682 125.169 100.618 125.039C102.068 124.91 103.528 125.101 104.905 125.601C106.281 126.1 107.545 126.897 108.615 127.941C109.685 128.985 110.539 130.253 111.122 131.664C111.704 133.076 112.003 134.6 112 136.14Z" stroke="#231F20" stroke-width="1.99235" stroke-miterlimit="10"/>
    <path d="M222 136.14C221.999 136.764 221.945 137.386 221.84 138H200.159C199.901 136.482 199.957 134.926 200.325 133.431C200.693 131.936 201.365 130.535 202.297 129.316C203.23 128.098 204.403 127.088 205.742 126.352C207.081 125.616 208.557 125.169 210.076 125.039C211.596 124.91 213.125 125.101 214.567 125.601C216.009 126.1 217.333 126.897 218.454 127.941C219.575 128.985 220.469 130.253 221.08 131.664C221.69 133.076 222.004 134.6 222 136.14Z" stroke="#231F20" stroke-width="1.99235" stroke-miterlimit="10"/>
    <path d="M112 138H111.848H91.1523H91" stroke="#231F20" stroke-width="1.99235" stroke-miterlimit="10"/>
    <path d="M194 79L190.174 83H124.054C124.054 82.8378 120 79 120 79H194Z" stroke="#231F20" stroke-width="1.99235" stroke-miterlimit="10"/>
    <path d="M180.988 74.244H177.533V79H136.899V74.244H133C135.184 69.6751 138.593 65.822 142.838 63.126C147.082 60.4299 151.99 59 157 59C162.01 59 166.918 60.4299 171.162 63.126C175.407 65.822 178.816 69.6751 181 74.244H180.988Z" stroke="#231F20" stroke-width="1.99235" stroke-miterlimit="10"/>
    <path d="M137 74V79H127.718L124 74H137Z" stroke="#231F20" stroke-width="1.99235" stroke-miterlimit="10"/>
    <path d="M190 74L186.287 79H177V74H190Z" stroke="#231F20" stroke-width="1.99235" stroke-miterlimit="10"/>
    <path d="M185 68H181V74H185V68Z" stroke="#231F20" stroke-width="1.99235" stroke-miterlimit="10"/>
    <path d="M132 68H129V74H132V68Z" stroke="#231F20" stroke-width="1.99235" stroke-miterlimit="10"/>
    <path d="M156.84 48.2571V51.4126C157.703 51.6314 158.459 52.179 158.967 52.9515C159.475 53.724 159.698 54.6676 159.594 55.6034C159.491 56.5392 159.067 57.4019 158.405 58.028C157.742 58.6541 156.887 59 156 59C155.113 59 154.258 58.6541 153.595 58.028C152.933 57.4019 152.509 56.5392 152.406 55.6034C152.302 54.6676 152.525 53.724 153.033 52.9515C153.541 52.179 154.297 51.6314 155.16 51.4126V48.2571H152V46.4709H155.16V44H156.84V46.4709H160V48.2571H156.84Z" stroke="#231F20" stroke-width="1.99235" stroke-miterlimit="10"/>
    <path d="M234 173V124H241V173" stroke="#231F20" stroke-width="1.99235" stroke-miterlimit="10"/>
    <path d="M76 124H77V173" stroke="#231F20" stroke-width="1.99235" stroke-miterlimit="10"/>
    <path d="M70 173V134" stroke="#231F20" stroke-width="1.99235" stroke-miterlimit="10"/>
    <path d="M15 124H8V129H15V124Z" stroke="#231F20" stroke-width="1.99235" stroke-miterlimit="10"/>
    <path d="M8 173V134H15V173" stroke="#231F20" stroke-width="1.99235" stroke-miterlimit="10"/>
    <path d="M239.195 124H235.467L230 118H244L239.195 124Z" stroke="#231F20" stroke-width="1.99235" stroke-miterlimit="10"/>
    <path d="M188 92H179V114H188V92Z" stroke="#231F20" stroke-width="1.99235" stroke-miterlimit="10"/>
    <path d="M190 114H177V116H190V114Z" stroke="#231F20" stroke-width="1.99235" stroke-miterlimit="10"/>
    <path d="M190 89H177V92H190V89Z" stroke="#231F20" stroke-width="1.99235" stroke-miterlimit="10"/>
    <path d="M190 83H177V87H190V83Z" stroke="#231F20" stroke-width="1.99235" stroke-miterlimit="10"/>
    <path d="M190 119H177V122H190V119Z" stroke="#231F20" stroke-width="1.99235" stroke-miterlimit="10"/>
    <path d="M190 122H178V124H190V122Z" stroke="#231F20" stroke-width="1.99235" stroke-miterlimit="10"/>
    <path d="M190 127H178V130H190V127Z" stroke="#231F20" stroke-width="1.99235" stroke-miterlimit="10"/>
    <path d="M190 160H178V163H190V160Z" stroke="#231F20" stroke-width="1.99235" stroke-miterlimit="10"/>
    <path d="M189 130H179V160H189V130Z" stroke="#231F20" stroke-width="1.99235" stroke-miterlimit="10"/>
    <path d="M179 173V163H189V173" stroke="#231F20" stroke-width="1.99235" stroke-miterlimit="10"/>
    <path d="M192 124H177V127H192V124Z" stroke="#231F20" stroke-width="1.99235" stroke-miterlimit="10"/>
    <path d="M194 116H173V119H194V116Z" stroke="#231F20" stroke-width="1.99235" stroke-miterlimit="10"/>
    <path d="M192 87H175V89H192V87Z" stroke="#231F20" stroke-width="1.99235" stroke-miterlimit="10"/>
    <path d="M126 114H135V92H126V114Z" stroke="#231F20" stroke-width="1.99235" stroke-miterlimit="10"/>
    <path d="M125 116H137V114H125V116Z" stroke="#231F20" stroke-width="1.99235" stroke-miterlimit="10"/>
    <path d="M125 92H137V89H125V92Z" stroke="#231F20" stroke-width="1.99235" stroke-miterlimit="10"/>
    <path d="M125 87H137V83H125V87Z" stroke="#231F20" stroke-width="1.99235" stroke-miterlimit="10"/>
    <path d="M125 122H137V119H125V122Z" stroke="#231F20" stroke-width="1.99235" stroke-miterlimit="10"/>
    <path d="M124 124H136V122H124V124Z" stroke="#231F20" stroke-width="1.99235" stroke-miterlimit="10"/>
    <path d="M124 130H136V127H124V130Z" stroke="#231F20" stroke-width="1.99235" stroke-miterlimit="10"/>
    <path d="M136 160H124V163H136V160Z" stroke="#231F20" stroke-width="1.99235" stroke-miterlimit="10"/>
    <path d="M135 130H125V160H135V130Z" stroke="#231F20" stroke-width="1.99235" stroke-miterlimit="10"/>
    <path d="M125 173V163H135V173" stroke="#231F20" stroke-width="1.99235" stroke-miterlimit="10"/>
    <path d="M122 127H138V124H122V127Z" stroke="#231F20" stroke-width="1.99235" stroke-miterlimit="10"/>
    <path d="M121 119H141V116H121V119Z" stroke="#231F20" stroke-width="1.99235" stroke-miterlimit="10"/>
    <path d="M122 89H139V87H122V89Z" stroke="#231F20" stroke-width="1.99235" stroke-miterlimit="10"/>
    <path d="M240 105H233V118H240V105Z" stroke="#231F20" stroke-width="1.99235" stroke-miterlimit="10"/>
    <path d="M242 101L239.381 105H230V101H242Z" stroke="#231F20" stroke-width="1.99235" stroke-miterlimit="10"/>
    <path d="M79 101V105H21L22.5839 101.315L24.3659 101.303L72.9282 101.031L79 101Z" stroke="#231F20" stroke-width="1.99235" stroke-miterlimit="10"/>
    <path d="M73 76H25L26.5643 72.3215L29.829 72.2968L68.1058 72.0124L70.1204 72L73 76Z" stroke="#231F20" stroke-width="1.99235" stroke-miterlimit="10"/>
    <path d="M70 47H29L30.5515 44.2365L33.4658 44.2179L64.0181 44.0185L67.1388 44L70 47Z" stroke="#231F20" stroke-width="1.99235" stroke-miterlimit="10"/>
    <path d="M122 88C122 88 110.592 103 79 103" stroke="#231F20" stroke-width="1.99235" stroke-miterlimit="10"/>
    <path d="M192 88C192 88 202.437 103 230 103" stroke="#231F20" stroke-width="1.99235" stroke-miterlimit="10"/>
    <path d="M239 98H234V101H239V98Z" stroke="#231F20" stroke-width="1.99235" stroke-miterlimit="10"/>
    <path d="M70 129V134H3L7.75683 129H70Z" stroke="#231F20" stroke-width="1.99235" stroke-miterlimit="10"/>
    <path d="M13 120H10V124H13V120Z" stroke="#231F20" stroke-width="1.99235" stroke-miterlimit="10"/>
    <path d="M64.223 125.514V115.109C64.223 114.92 64.223 114.725 64.223 114.518C64.2224 113.089 64.7502 111.71 65.7047 110.648C66.6592 109.585 67.9728 108.914 69.3922 108.764V105H25V108.805C25.2966 108.757 25.5965 108.734 25.8969 108.734C26.6553 108.734 27.4062 108.884 28.1068 109.175C28.8073 109.465 29.4438 109.891 29.9798 110.429C30.5157 110.966 30.9407 111.604 31.2304 112.305C31.5201 113.007 31.6688 113.759 31.668 114.518C31.668 114.713 31.668 114.908 31.668 115.109V125.514H25V129H70V125.514H64.223ZM54.1916 115.109V125.514H42.6259V115.109C42.6259 114.92 42.6259 114.725 42.6259 114.518C42.6259 112.984 43.2345 111.513 44.3179 110.428C45.4013 109.344 46.8707 108.734 48.4028 108.734C49.935 108.734 51.4044 109.344 52.4877 110.428C53.5711 111.513 54.1798 112.984 54.1798 114.518C54.1798 114.713 54.1798 114.908 54.1798 115.109H54.1916Z" stroke="#231F20" stroke-width="1.99235" stroke-miterlimit="10"/>
    <path d="M76 105H69V118H76V105Z" stroke="#231F20" stroke-width="1.99235" stroke-miterlimit="10"/>
    <path d="M73 101V101H25V101H73Z" stroke="#231F20" stroke-width="1.99235" stroke-miterlimit="10"/>
    <path d="M30 101H68V75.8287H30V101ZM42.5647 86.0347C42.5647 85.8451 42.5647 85.6495 42.5647 85.4421C42.5647 83.9032 43.1714 82.4273 44.2514 81.3392C45.3314 80.251 46.7962 79.6397 48.3235 79.6397C49.8509 79.6397 51.3156 80.251 52.3956 81.3392C53.4756 82.4273 54.0824 83.9032 54.0824 85.4421C54.0824 85.6376 54.0824 85.8332 54.0824 86.0347V96.4719H42.5647V86.0347ZM30 72V72.2786L68 72.0059H30V72Z" stroke="#231F20" stroke-width="1.99235" stroke-miterlimit="10"/>
    <path d="M32 72H63V47.7742H32V72ZM41.0315 57.7608C41.0315 57.65 41.0315 57.5333 41.0315 57.4167C41.0315 55.9021 41.6484 54.4495 42.7465 53.3785C43.8446 52.3075 45.334 51.7058 46.8869 51.7058C48.4399 51.7058 49.9293 52.3075 51.0274 53.3785C52.1255 54.4495 52.7424 55.9021 52.7424 57.4167C52.7424 57.5333 52.7424 57.65 52.7424 57.7608V68.0392H41.0315V57.7608ZM32 44V44.2742L63 44.0233L32 44Z" stroke="#231F20" stroke-width="1.99235" stroke-miterlimit="10"/>
    <path d="M53.9694 86.4588V97H42V86.4588C42 86.2673 42 86.0697 42 85.8602C42 84.306 42.6321 82.8154 43.7574 81.7164C44.8826 80.6174 46.4087 80 48 80C49.5913 80 51.1174 80.6174 52.2426 81.7164C53.3679 82.8154 54 84.306 54 85.8602C54 86.0697 53.9877 86.2673 53.9694 86.4588Z" stroke="#231F20" stroke-width="1.99235" stroke-miterlimit="10"/>
    <path d="M53.9877 57.3021V68H42V57.3021C42 57.1868 42 57.0654 42 56.9439C42 55.3675 42.6321 53.8556 43.7574 52.7409C44.8826 51.6262 46.4087 51 48 51C49.5913 51 51.1174 51.6262 52.2426 52.7409C53.3679 53.8556 54 55.3675 54 56.9439C54 57.0654 53.9939 57.1868 53.9877 57.3021Z" stroke="#231F20" stroke-width="1.99235" stroke-miterlimit="10"/>
    <path d="M53.9694 115.459V126H42V115.459C42 115.267 42 115.07 42 114.86C42 113.306 42.6321 111.815 43.7574 110.716C44.8826 109.617 46.4087 109 48 109C49.5913 109 51.1174 109.617 52.2426 110.716C53.3679 111.815 54 113.306 54 114.86C54 115.07 53.9877 115.267 53.9694 115.459Z" stroke="#231F20" stroke-width="1.99235" stroke-miterlimit="10"/>
    <path d="M30.9734 115.451V126H25V109.072C25.2669 109.024 25.5368 109 25.8071 109C26.4895 109 27.1652 109.152 27.7956 109.447C28.4259 109.741 28.9986 110.173 29.4809 110.718C29.9632 111.263 30.3456 111.909 30.6062 112.621C30.8669 113.332 31.0007 114.095 31 114.864C31 115.062 30.9894 115.26 30.9734 115.451Z" stroke="#231F20" stroke-width="1.99235" stroke-miterlimit="10"/>
    <path d="M72 124.321H70.2807V126H64V115.44C64 115.248 64 115.05 64 114.841C63.9993 113.39 64.5731 111.991 65.6109 110.912C66.6486 109.834 68.0767 109.153 69.6199 109V118.043H66.7843L68.8821 120.561L72 124.321Z" stroke="#231F20" stroke-width="1.99235" stroke-miterlimit="10"/>
    <path d="M81 118L76.0177 123.472L75.5385 124H71.8106L68.9349 120.411L67 118H81Z" stroke="#231F20" stroke-width="1.99235" stroke-miterlimit="10"/>
    <path d="M76 123V124H75L76 123Z" stroke="#231F20" stroke-width="1.99235" stroke-miterlimit="10"/>
    <path d="M64 44L49 16" stroke="#231F20" stroke-width="1.99235" stroke-miterlimit="10"/>
    <path d="M48 16L33 44" stroke="#231F20" stroke-width="1.99235" stroke-miterlimit="10"/>
    <path d="M56 6.52015V10.4799H50.8515V16H47.1485V10.4799H42V6.52015H47.1485V1H50.8515V6.52015H56Z" stroke="#231F20" stroke-width="1.99235" stroke-miterlimit="10"/>
</svg>
