<svg width="390" height="265" viewBox="0 0 390 265" fill="none" xmlns="http://www.w3.org/2000/svg">
    <g clip-path="url(#clip0_112_891)">
        <rect x="111.591" y="96.8658" width="122.243" height="267.134" fill="#D2FBE8"/>
        <rect x="-94" y="27" width="127.8" height="337" fill="#96FCCD"/>
        <rect x="33.8" y="189.335" width="298.2" height="172.61" fill="#B5FADA"/>
        <path d="M205.457 302V267.752C205.405 267.107 205.385 266.462 205.385 265.807C205.526 258.509 208.525 251.559 213.737 246.448C218.949 241.337 225.959 238.474 233.261 238.474C240.562 238.474 247.572 241.337 252.784 246.448C257.997 251.559 260.996 258.509 261.137 265.807C261.137 266.504 261.137 267.201 261.053 267.887V302" stroke="#231F20" stroke-width="3" stroke-miterlimit="10"/>
        <path d="M310.374 301.625V273.932C310.374 273.692 310.374 273.443 310.374 273.193C310.374 268.246 312.34 263.501 315.839 260.003C319.339 256.505 324.085 254.54 329.034 254.54C333.983 254.54 338.729 256.505 342.229 260.003C345.728 263.501 347.694 268.246 347.694 273.193C347.694 273.443 347.694 273.692 347.694 273.932V301.625" stroke="#231F20" stroke-width="3" stroke-miterlimit="10"/>
        <path d="M119.108 301.625V273.932C119.108 273.692 119.108 273.443 119.108 273.193C119.108 270.743 119.591 268.318 120.528 266.055C121.466 263.792 122.841 261.735 124.573 260.003C126.306 258.271 128.363 256.897 130.627 255.96C132.891 255.022 135.318 254.54 137.768 254.54C140.219 254.54 142.645 255.022 144.909 255.96C147.173 256.897 149.23 258.271 150.963 260.003C152.696 261.735 154.07 263.792 155.008 266.055C155.946 268.318 156.429 270.743 156.429 273.193C156.429 273.443 156.429 273.692 156.429 273.932V301.625" stroke="#231F20" stroke-width="3" stroke-miterlimit="10"/>
        <path d="M234.088 225.67C245.141 225.67 254.101 216.713 254.101 205.665C254.101 194.616 245.141 185.659 234.088 185.659C223.035 185.659 214.075 194.616 214.075 205.665C214.075 216.713 223.035 225.67 234.088 225.67Z" stroke="#231F20" stroke-width="3" stroke-miterlimit="10"/>
        <path d="M242.289 158.641V175.391H225.887V158.641C225.887 156.467 226.751 154.382 228.289 152.845C229.827 151.307 231.913 150.443 234.088 150.443C236.263 150.443 238.349 151.307 239.887 152.845C241.425 154.382 242.289 156.467 242.289 158.641Z" stroke="#231F20" stroke-width="3" stroke-miterlimit="10"/>
        <path d="M156.429 237.561C156.426 238.607 156.336 239.651 156.158 240.682H119.379C118.94 238.135 119.036 235.523 119.66 233.015C120.284 230.506 121.423 228.154 123.005 226.109C124.587 224.063 126.577 222.369 128.849 221.133C131.12 219.898 133.624 219.147 136.201 218.93C138.779 218.713 141.373 219.034 143.819 219.872C146.266 220.711 148.511 222.048 150.413 223.8C152.315 225.552 153.832 227.68 154.868 230.049C155.903 232.418 156.435 234.976 156.429 237.561Z" stroke="#231F20" stroke-width="3" stroke-miterlimit="10"/>
        <path d="M347.694 237.561C347.692 238.607 347.601 239.651 347.424 240.682H310.644C310.205 238.135 310.301 235.523 310.926 233.015C311.55 230.506 312.689 228.154 314.271 226.109C315.853 224.063 317.843 222.369 320.114 221.133C322.386 219.898 324.89 219.147 327.467 218.93C330.044 218.713 332.638 219.034 335.085 219.872C337.531 220.711 339.777 222.048 341.679 223.8C343.581 225.552 345.098 227.68 346.133 230.049C347.169 232.418 347.7 234.976 347.694 237.561Z" stroke="#231F20" stroke-width="3" stroke-miterlimit="10"/>
        <path d="M156.429 240.724H156.158H119.379H119.108" stroke="#231F20" stroke-width="3" stroke-miterlimit="10"/>
        <path d="M298.926 137.408L292.286 145.106H177.535C177.535 144.794 170.499 137.408 170.499 137.408H298.926Z" stroke="#231F20" stroke-width="3" stroke-miterlimit="10"/>
        <path d="M276.227 129.168H270.16V137.408H198.797V129.168H191.949C195.784 121.253 201.771 114.578 209.226 109.907C216.681 105.237 225.301 102.76 234.098 102.76C242.896 102.76 251.516 105.237 258.971 109.907C266.425 114.578 272.413 121.253 276.248 129.168H276.227Z" stroke="#231F20" stroke-width="3" stroke-miterlimit="10"/>
        <path d="M198.797 129.168V137.408H183.519L177.399 129.168H198.797Z" stroke="#231F20" stroke-width="3" stroke-miterlimit="10"/>
        <path d="M291.547 129.168L285.438 137.408H270.16V129.168H291.547Z" stroke="#231F20" stroke-width="3" stroke-miterlimit="10"/>
        <path d="M282.961 119.441H277.247V129.168H282.961V119.441Z" stroke="#231F20" stroke-width="3" stroke-miterlimit="10"/>
        <path d="M190.96 119.441H185.246V129.168H190.96V119.441Z" stroke="#231F20" stroke-width="3" stroke-miterlimit="10"/>
        <path d="M234.4 83.9241V89.4379C236.002 89.8202 237.408 90.777 238.351 92.1268C239.294 93.4766 239.709 95.1254 239.516 96.7605C239.324 98.3956 238.537 99.9031 237.307 100.997C236.076 102.091 234.486 102.695 232.839 102.695C231.192 102.695 229.602 102.091 228.372 100.997C227.141 99.9031 226.355 98.3956 226.162 96.7605C225.97 95.1254 226.384 93.4766 227.327 92.1268C228.27 90.777 229.676 89.8202 231.278 89.4379V83.9241H225.408V80.8031H231.278V76.4857H234.4V80.8031H240.27V83.9241H234.4Z" stroke="#231F20" stroke-width="3" stroke-miterlimit="10"/>
        <path d="M369.425 301.625V216.63H381.653V301.625" stroke="#231F20" stroke-width="3" stroke-miterlimit="10"/>
        <path d="M92.2883 216.63H94.3177V301.625" stroke="#231F20" stroke-width="3" stroke-miterlimit="10"/>
        <path d="M82.0995 301.625V233.827" stroke="#231F20" stroke-width="3" stroke-miterlimit="10"/>
        <path d="M378.354 216.63H371.798L362.181 205.758H386.805L378.354 216.63Z" stroke="#231F20" stroke-width="3" stroke-miterlimit="10"/>
        <path d="M289.538 160.649H272.928V198.632H289.538V160.649Z" stroke="#231F20" stroke-width="3" stroke-miterlimit="10"/>
        <path d="M291.661 198.632H269.868V203.282H291.661V198.632Z" stroke="#231F20" stroke-width="3" stroke-miterlimit="10"/>
        <path d="M291.661 155.999H269.868V160.649H291.661V155.999Z" stroke="#231F20" stroke-width="3" stroke-miterlimit="10"/>
        <path d="M291.661 145.106H269.868V151.349H291.661V145.106Z" stroke="#231F20" stroke-width="3" stroke-miterlimit="10"/>
        <path d="M291.661 207.995H269.868V212.645H291.661V207.995Z" stroke="#231F20" stroke-width="3" stroke-miterlimit="10"/>
        <path d="M293.056 212.635H271.263V217.285H293.056V212.635Z" stroke="#231F20" stroke-width="3" stroke-miterlimit="10"/>
        <path d="M293.056 222.071H271.263V226.721H293.056V222.071Z" stroke="#231F20" stroke-width="3" stroke-miterlimit="10"/>
        <path d="M291.328 226.721H273.001V280.236H291.328V226.721Z" stroke="#231F20" stroke-width="3" stroke-miterlimit="10"/>
        <path d="M295.585 217.358H268.744V222.008H295.585V217.358Z" stroke="#231F20" stroke-width="3" stroke-miterlimit="10"/>
        <path d="M298.436 203.345H263.093V207.995H298.436V203.345Z" stroke="#231F20" stroke-width="3" stroke-miterlimit="10"/>
        <path d="M295.47 151.349H266.059V155.999H295.47V151.349Z" stroke="#231F20" stroke-width="3" stroke-miterlimit="10"/>
        <path d="M179.97 198.632H196.58V160.649H179.97V198.632Z" stroke="#231F20" stroke-width="3" stroke-miterlimit="10"/>
        <path d="M177.847 203.272H199.64V198.622H177.847V203.272Z" stroke="#231F20" stroke-width="3" stroke-miterlimit="10"/>
        <path d="M177.847 160.639H199.64V155.988H177.847V160.639Z" stroke="#231F20" stroke-width="3" stroke-miterlimit="10"/>
        <path d="M177.847 151.349H199.64V145.106H177.847V151.349Z" stroke="#231F20" stroke-width="3" stroke-miterlimit="10"/>
        <path d="M177.847 212.635H199.64V207.985H177.847V212.635Z" stroke="#231F20" stroke-width="3" stroke-miterlimit="10"/>
        <path d="M176.452 217.296H198.245V212.645H176.452V217.296Z" stroke="#231F20" stroke-width="3" stroke-miterlimit="10"/>
        <path d="M176.452 226.711H198.245V222.06H176.452V226.711Z" stroke="#231F20" stroke-width="3" stroke-miterlimit="10"/>
        <path d="M196.518 226.721H178.18V280.236H196.518V226.721Z" stroke="#231F20" stroke-width="3" stroke-miterlimit="10"/>
        <path d="M173.923 221.998H200.764V217.348H173.923V221.998Z" stroke="#231F20" stroke-width="3" stroke-miterlimit="10"/>
        <path d="M171.072 207.985H206.415V203.334H171.072V207.985Z" stroke="#231F20" stroke-width="3" stroke-miterlimit="10"/>
        <path d="M174.027 155.999H203.438V151.349H174.027V155.999Z" stroke="#231F20" stroke-width="3" stroke-miterlimit="10"/>
        <path d="M379.353 183.443H367.749V205.758H379.353V183.443Z" stroke="#231F20" stroke-width="3" stroke-miterlimit="10"/>
        <path d="M383.953 176.712L379.353 183.443H362.879V176.712H383.953Z" stroke="#231F20" stroke-width="3" stroke-miterlimit="10"/>
        <path d="M97.5024 176.712V183.443H-3.10516L-0.357633 177.243L2.73334 177.222L86.9702 176.764L97.5024 176.712Z" stroke="#231F20" stroke-width="3" stroke-miterlimit="10"/>
        <path d="M87.4177 132.529H3.108L5.85553 126.339L11.59 126.297L78.8212 125.819L82.3597 125.798L87.4177 132.529Z" stroke="#231F20" stroke-width="3" stroke-miterlimit="10"/>
        <path d="M82.5575 82.6029H10.2266L12.9637 76.4025L18.105 76.3609L72.0045 75.9135L77.5099 75.8719L82.5575 82.6029Z" stroke="#231F20" stroke-width="3" stroke-miterlimit="10"/>
        <path d="M174.038 153.627C174.038 153.627 154.014 180.031 98.5639 180.031" stroke="#231F20" stroke-width="3" stroke-miterlimit="10"/>
        <path d="M295.47 153.627C295.47 153.627 313.985 180.031 362.879 180.031" stroke="#231F20" stroke-width="3" stroke-miterlimit="10"/>
        <path d="M377.355 171.271H368.519V176.712H377.355V171.271Z" stroke="#231F20" stroke-width="3" stroke-miterlimit="10"/>
        <path d="M82.0995 225.681V233.827H-35.1701L-26.8443 225.681H82.0995Z" stroke="#231F20" stroke-width="3" stroke-miterlimit="10"/>
        <path d="M71.9108 219.543V201.222C71.9108 200.889 71.9108 200.546 71.9108 200.182C71.9097 197.666 72.8405 195.238 74.524 193.367C76.2074 191.496 78.5241 190.314 81.0276 190.049V183.422H2.73334V190.122C3.25646 190.038 3.78545 189.996 4.31525 189.997C5.65276 189.997 6.97717 190.261 8.21274 190.773C9.44832 191.285 10.5708 192.035 11.5161 192.981C12.4614 193.927 13.2109 195.05 13.7218 196.285C14.2327 197.521 14.495 198.845 14.4936 200.182C14.4936 200.525 14.4936 200.869 14.4936 201.222V219.543H2.73334V225.681H82.0995V219.543H71.9108ZM54.2183 201.222V219.543H33.82V201.222C33.82 200.889 33.82 200.546 33.82 200.182C33.82 197.481 34.8934 194.89 36.8042 192.98C38.715 191.07 41.3065 189.997 44.0088 189.997C46.711 189.997 49.3025 191.07 51.2133 192.98C53.1241 194.89 54.1975 197.481 54.1975 200.182C54.1975 200.525 54.1975 200.869 54.1975 201.222H54.2183Z" stroke="#231F20" stroke-width="3" stroke-miterlimit="10"/>
        <path d="M92.6317 183.443H81.0276V205.758H92.6317V183.443Z" stroke="#231F20" stroke-width="3" stroke-miterlimit="10"/>
        <path d="M86.9702 176.712V176.764L2.73334 177.222V176.712H86.9702Z" stroke="#231F20" stroke-width="3" stroke-miterlimit="10"/>
        <path d="M11.59 176.712H78.8212V132.529H11.59V176.712ZM33.82 150.443C33.82 150.11 33.82 149.767 33.82 149.403C33.82 146.702 34.8934 144.111 36.8042 142.201C38.715 140.291 41.3065 139.218 44.0088 139.218C46.711 139.218 49.3025 140.291 51.2133 142.201C53.1241 144.111 54.1975 146.702 54.1975 149.403C54.1975 149.746 54.1975 150.09 54.1975 150.443V168.764H33.82V150.443ZM11.59 125.808V126.297L78.8212 125.819H11.59V125.808Z" stroke="#231F20" stroke-width="3" stroke-miterlimit="10"/>
        <path d="M18.1049 125.808H72.0461V82.6029H18.1049V125.808ZM33.82 100.414C33.82 100.216 33.82 100.008 33.82 99.7997C33.82 97.0985 34.8935 94.5079 36.8042 92.5979C38.715 90.6878 41.3065 89.6148 44.0088 89.6148C46.711 89.6148 49.3025 90.6878 51.2133 92.5979C53.1241 94.5079 54.1975 97.0985 54.1975 99.7997C54.1975 100.008 54.1975 100.216 54.1975 100.414V118.744H33.82V100.414ZM18.1049 75.8719V76.3609L72.0461 75.9135L18.1049 75.8719Z" stroke="#231F20" stroke-width="3" stroke-miterlimit="10"/>
        <path d="M54.1455 150.443V168.764H33.82V150.443C33.82 150.11 33.82 149.767 33.82 149.403C33.82 146.702 34.8935 144.111 36.8042 142.201C38.715 140.291 41.3065 139.218 44.0088 139.218C46.711 139.218 49.3025 140.291 51.2133 142.201C53.1241 144.111 54.1975 146.702 54.1975 149.403C54.1975 149.767 54.1767 150.11 54.1455 150.443Z" stroke="#231F20" stroke-width="3" stroke-miterlimit="10"/>
        <path d="M54.1767 100.414V118.744H33.82V100.414C33.82 100.216 33.82 100.008 33.82 99.7997C33.82 97.0985 34.8935 94.5079 36.8042 92.5979C38.715 90.6878 41.3065 89.6148 44.0088 89.6148C46.711 89.6148 49.3025 90.6878 51.2133 92.5979C53.1241 94.5079 54.1975 97.0985 54.1975 99.7997C54.1975 100.008 54.1871 100.216 54.1767 100.414Z" stroke="#231F20" stroke-width="3" stroke-miterlimit="10"/>
        <path d="M54.1455 201.222V219.543H33.82V201.222C33.82 200.889 33.82 200.546 33.82 200.182C33.82 197.481 34.8935 194.89 36.8042 192.98C38.715 191.07 41.3065 189.997 44.0088 189.997C46.711 189.997 49.3025 191.07 51.2133 192.98C53.1241 194.89 54.1975 197.481 54.1975 200.182C54.1975 200.546 54.1767 200.889 54.1455 201.222Z" stroke="#231F20" stroke-width="3" stroke-miterlimit="10"/>
        <path d="M14.4416 201.222V219.543H2.73334V190.143C3.25646 190.059 3.78545 190.017 4.31525 190.018C5.65276 190.018 6.97717 190.281 8.21274 190.793C9.44832 191.305 10.5708 192.056 11.5161 193.002C12.4614 193.948 13.2109 195.07 13.7218 196.306C14.2327 197.542 14.495 198.866 14.4936 200.203C14.4936 200.546 14.4728 200.889 14.4416 201.222Z" stroke="#231F20" stroke-width="3" stroke-miterlimit="10"/>
        <path d="M84.8887 216.63H82.0995V219.543H71.9108V201.222C71.9108 200.889 71.9108 200.546 71.9108 200.182C71.9097 197.666 72.8405 195.238 74.524 193.367C76.2074 191.496 78.5241 190.314 81.0276 190.049V205.737H76.4276L79.8307 210.107L84.8887 216.63Z" stroke="#231F20" stroke-width="3" stroke-miterlimit="10"/>
        <path d="M101.051 205.758L92.2883 215.673L91.4453 216.63H84.8887L79.8307 210.128L76.4276 205.758H101.051Z" stroke="#231F20" stroke-width="3" stroke-miterlimit="10"/>
        <path d="M92.2883 215.673V216.63H91.4453L92.2883 215.673Z" stroke="#231F20" stroke-width="3" stroke-miterlimit="10"/>
        <path d="M72.0044 75.9135L46.1526 26.8616" stroke="#231F20" stroke-width="3" stroke-miterlimit="10"/>
        <path d="M43.9775 26.8616L18.1049 76.3609" stroke="#231F20" stroke-width="3" stroke-miterlimit="10"/>
        <path d="M57.7048 10.8715V17.5505H48.4007V26.8615H41.7087V17.5505H32.4046V10.8715H41.7087V1.5605H48.4007V10.8715H57.7048Z" stroke="#231F20" stroke-width="3" stroke-miterlimit="10"/>
    </g>
    <defs>
        <clipPath id="clip0_112_891">
            <rect width="429" height="302" fill="white" transform="translate(-39)"/>
        </clipPath>
    </defs>
</svg>
